<svg width="800" height="1720" viewBox="0 0 800 1720" fill="none" xmlns="http://www.w3.org/2000/svg">
<g clip-path="url(#clip0_321_432)">
<rect width="800" height="1720" fill="white"/>
<path fill-rule="evenodd" clip-rule="evenodd" d="M428.936 -344.147C526.394 -288.215 623.245 -227.672 682.32 -147.623C739.452 -70.2075 755.689 12.4176 746.733 86.4789C738.403 155.375 695.229 210.061 634.179 250.501C576.484 288.718 494.83 297.345 413.143 307.449C317.771 319.245 225.091 350.92 120.065 314.089C9.56825 275.34 -82.4483 193.726 -147.2 110.947C-211.01 29.372 -245.481 -60.8297 -234.509 -139.2C-224.193 -212.891 -139.383 -246.101 -89.4931 -301.257C-30.614 -366.351 -28.2589 -481.847 83.812 -491.119C195.363 -500.347 318.149 -407.73 428.936 -344.147Z" fill="#5E5CE6"/>
</g>
<defs>
<clipPath id="clip0_321_432">
<rect width="800" height="1720" fill="white"/>
</clipPath>
</defs>
</svg>
