<svg width="800" height="1720" viewBox="0 0 800 1720" fill="none" xmlns="http://www.w3.org/2000/svg">
<g clip-path="url(#clip0_606_1155)">
<rect width="800" height="1720" fill="white"/>
<path fill-rule="evenodd" clip-rule="evenodd" d="M552.498 -286.167C676.66 -217.703 800.552 -144.472 880.49 -54.634C957.798 32.2493 985.91 120.447 982.524 197.121C979.373 268.448 932.42 321.361 862.286 357.538C796.007 391.728 697.6 392.493 599.301 394.802C484.535 397.497 375.056 421.29 243.626 372.069C105.35 320.285 -14.7989 225.47 -101.915 132.197C-187.764 40.2801 -238.814 -57.7013 -233.412 -138.685C-228.334 -214.834 -128.58 -241.032 -73.5066 -293.756C-8.51057 -355.979 -17.3469 -476.727 117.979 -475.086C252.676 -473.453 411.352 -363.995 552.498 -286.167Z" fill="#66398D"/>
</g>
<defs>
<clipPath id="clip0_606_1155">
<rect width="800" height="1720" fill="white"/>
</clipPath>
</defs>
</svg>
