<svg width="800" height="1720" viewBox="0 0 800 1720" fill="none" xmlns="http://www.w3.org/2000/svg">
<g clip-path="url(#clip0_321_432)">
<rect width="800" height="1720" fill="white"/>
<path fill-rule="evenodd" clip-rule="evenodd" d="M515.645 -303.46C631.842 -238.734 747.669 -169.287 821.384 -82.3688C892.674 1.69083 917.245 88.2263 912.197 164.121C907.502 234.723 861.676 288.165 794.251 325.614C730.533 361.004 637.122 364.114 543.778 368.748C434.796 374.158 330.328 400.301 206.773 354.776C76.7823 306.88 -34.9758 216.002 -115.421 125.859C-194.697 37.0267 -240.802 -58.6344 -233.74 -138.839C-227.099 -214.255 -131.802 -242.544 -78.2747 -295.993C-15.1031 -359.072 -20.6015 -478.254 107.788 -479.868C235.582 -481.475 383.554 -377.04 515.645 -303.46Z" fill="#5E5CE6"/>
</g>
<defs>
<clipPath id="clip0_321_432">
<rect width="800" height="1720" fill="white"/>
</clipPath>
</defs>
</svg>
