<svg width="1440" height="900" viewBox="0 0 1440 900" fill="none" xmlns="http://www.w3.org/2000/svg">
<g clip-path="url(#clip0_47_6)">
<rect width="1440" height="900" fill="#05042F"/>
<mask id="mask0_47_6" style="mask-type:alpha" maskUnits="userSpaceOnUse" x="-180" y="251" width="842" height="836">
<path fill-rule="evenodd" clip-rule="evenodd" d="M-41.662 739.4C-49.362 751.1 -50.162 768.1 -43.762 782.8C-36.562 800.5 -13.2621 814.3 5.23795 817.6L5.03796 817.8L8.33795 818.1C10.338 818.3 11.938 818.4 14.138 818.4C25.538 818.4 35.738 813.8 42.638 805.4C48.938 797.8 51.638 788.1 49.838 778.9C47.738 767.9 40.338 758.7 29.838 754.2L28.438 753.6L28.0461 753.427C23.9059 751.6 20.2099 749.969 16.138 745.8C6.53796 735.8 -4.36205 726.6 -18.462 726.6C-27.962 726.5 -36.262 731.1 -41.662 739.4ZM27.538 759.7C36.038 763.4 42.338 771.2 44.038 780.1C45.638 788.8 42.738 797.3 35.838 804C30.038 809.6 22.738 812.5 14.038 812.5C-6.46204 812.5 -27.962 796.9 -34.162 788.1C-35.762 785.8 -37.162 783.2 -38.262 780.6C-43.9621 766.9 -43.462 752.8 -36.862 742.9C-32.462 736.2 -25.862 732.6 -18.262 732.6C-10.162 732.6 -1.46204 736.9 6.83795 745.1C8.63795 746.8 10.038 748.2 11.138 749.4L11.2256 749.486C15.2627 753.424 17.0138 755.133 27.538 759.7Z" fill="url(#paint0_linear_47_6)"/>
<path fill-rule="evenodd" clip-rule="evenodd" d="M-20.5621 822.6C-54.4621 799.3 -61.4621 764.3 -56.7621 739.3C-52.2621 715.4 -36.9621 697 -17.8621 692.5C-14.9621 691.8 -11.8621 691.5 -8.5621 691.5C-3.46211 691.5 1.7379 692.2 6.7379 693L8.7379 693.3C8.94788 693.352 9.18541 693.377 9.43604 693.404C9.66258 693.428 9.90068 693.453 10.1379 693.5L10.2648 693.518C17.4551 694.516 27.3988 695.896 37.7379 712.2C39.448 714.843 40.856 717.244 42.1498 719.451L42.1513 719.453L42.1561 719.461C42.5245 720.09 42.8837 720.702 43.2379 721.3C47.7215 729.487 49.45 731.31 51.2014 733.156L51.3379 733.3C52.3379 734.3 53.3379 735.3 54.6379 737.1C60.9379 745.8 68.7379 750.1 76.3379 754.2L76.5616 754.323C82.6797 757.677 88.4933 760.865 93.0379 766.2C103.938 778.9 103.838 794 92.5379 811C79.8379 830.2 59.5379 840.8 35.2379 840.8C16.3379 840.8 -3.46211 834.3 -20.5621 822.6ZM8.9379 699.2C7.83789 699.1 6.83789 699 5.7379 698.8L4.2379 698.6C0.837891 698.1 -2.5621 697.6 -5.9621 697.5H-7.16209C-21.4621 697.5 -33.9621 704.7 -42.2621 717.9C-54.6621 737.5 -55.4621 765.3 -44.2621 788.8C-33.7621 810.5 -3.36209 830.8 23.3379 834.1C27.3379 834.6 31.2379 834.8 34.9379 834.8C57.9379 834.8 75.6379 825.7 87.4379 807.7C97.3379 792.8 97.6379 780.8 88.4379 770.1C84.6569 765.64 79.466 762.779 73.8676 759.692L73.3379 759.4C51.3117 747.395 43.1656 733.322 36.5931 721.968L36.4379 721.7C31.0379 712.2 26.6379 704.7 16.3379 700.6C14.3409 699.819 12.1177 699.565 9.93013 699.315C9.72502 699.292 9.52022 699.268 9.31595 699.245L9.10687 699.22L8.9379 699.2Z" fill="url(#paint1_linear_47_6)"/>
<path fill-rule="evenodd" clip-rule="evenodd" d="M-59.562 702.4C-71.462 730 -71.662 763.3 -60.062 791.4C-52.562 809 -37.162 826.7 -17.662 839.9C-2.06201 850.4 23.238 863 55.538 863C64.938 863 74.438 861.9 83.738 859.7C107.338 854 125.538 841.3 139.338 820.8C152.738 801.2 155.538 784.2 147.738 770.3C139.538 755.5 126.438 750.3 114.838 745.7L114.338 745.5C90.838 736.1 86.638 731.2 76.638 717.1C74.838 714.5 73.638 712.4 72.738 709.9C72.138 708.3 71.538 706.7 70.838 705.1L69.038 700.6C61.138 678.6 49.638 655.7 24.938 653.4C24.238 653.3 23.638 653.3 22.838 653.3C20.938 653.3 19.138 653.5 17.338 653.7C17.1694 653.715 17.0031 653.731 16.8384 653.746L15.738 653.85C15.4208 653.88 15.1035 653.91 14.7808 653.941C14.5694 653.96 14.3557 653.98 14.138 654C11.438 654.2 9.03799 654.3 6.638 654.3C-0.962006 654.5 -7.46201 654.7 -16.862 658.3C-35.162 665.5 -50.362 681.1 -59.562 702.4ZM5.88866 660.401C6.58888 660.376 7.27638 660.351 7.93799 660.3L7.93932 660.3C9.33887 660.2 10.7384 660.1 12.138 659.9C15.0377 659.6 17.9383 659.3 21.038 659.3C27.238 659.3 35.538 660.4 44.238 668.5C53.538 677.4 57.838 688.3 62.338 699.9L62.4678 700.228C68.3266 715.026 74.367 730.282 91.838 741.4C98.3774 745.597 105.012 748.27 111.556 750.906L112.038 751.1C119.838 754.2 127.338 757.2 133.338 762.3C141.538 769.2 146.138 778.2 146.038 787.1C145.738 803.4 132.538 822.8 119.538 834.8C103.338 849.6 81.638 857.1 55.038 857.1C50.338 857.1 45.538 856.9 40.538 856.4C2.13799 852.7 -40.562 822.5 -54.662 789.1C-66.762 759.8 -65.262 724.7 -50.762 697.6C-40.262 678 -24.462 665.2 -6.16202 661.5C-3.35234 660.904 -0.470154 660.743 2.36105 660.585L2.36476 660.585L2.3736 660.584C2.86346 660.557 3.35182 660.529 3.83798 660.5C4.52502 660.451 5.21205 660.426 5.88728 660.401H5.88866Z" fill="url(#paint2_linear_47_6)"/>
<path fill-rule="evenodd" clip-rule="evenodd" d="M-36.1622 840C-9.06219 865.4 25.1378 881.7 57.5378 884.7C63.2378 885.2 68.9378 885.4 74.5378 885.4H75.6378C99.5378 885.4 120.738 881 138.738 872.4C157.638 863.3 173.638 849.3 186.338 830.7C204.438 804.6 207.938 782.6 196.738 765.2C185.421 747.233 169.572 742.076 152.81 736.621L152.438 736.5C134.338 730.7 115.738 724.6 101.838 701.6C100.038 698.5 96.7378 692.7 95.8378 688.1C93.9378 678 91.0378 665.5 80.6378 644.9C74.5378 632.4 65.3378 623.4 53.9378 618.8C47.6378 616.3 40.3378 615 32.4378 615C27.5378 615 22.3378 615.5 16.7378 616.4C-12.2622 621.5 -39.1622 639.4 -56.8622 665.8C-75.4622 693.4 -82.8622 727.7 -77.8622 762.5C-76.4622 772.5 -73.9622 782.3 -70.3622 791.7C-63.7622 808.5 -51.8622 825.2 -36.1622 840ZM32.5378 620.8C52.5378 620.8 66.1378 629.3 75.2378 647.4C85.2378 667.3 88.0378 679.4 89.9378 689.1C91.4378 697.2 101.438 718 122.338 730.5C131.538 736 141.138 739.1 150.438 742.1L150.775 742.21C160.751 745.469 170.229 748.566 178.338 754.4C190.338 763 197.238 774.8 197.138 786.9C197.038 808.3 179.238 834.2 161.538 850.4C140.138 869.8 110.938 879.6 74.8378 879.6C69.3378 879.6 63.7378 879.4 58.0378 878.9C27.6378 876.4 -5.96219 860.4 -31.8622 836.1C-47.0622 821.8 -58.4622 805.7 -64.7622 789.6C-68.1622 780.6 -70.6622 771.2 -71.9622 761.7C-82.8622 686.7 -33.8622 631 17.7378 622.4C23.0378 621.2 28.0378 620.8 32.5378 620.8Z" fill="url(#paint3_linear_47_6)"/>
<path fill-rule="evenodd" clip-rule="evenodd" d="M118.638 665.8C119.838 672.1 122.038 678 125.338 683.5C143.038 713.8 166.938 720.5 190.038 726.9L190.082 726.912C202.966 730.508 215.151 733.908 226.338 741.1C243.538 752 253.838 768.9 254.038 786.3C254.038 802.6 247.238 820.3 233.138 840.4C210.638 873.2 182.438 892.8 144.338 902C128.538 905.7 111.338 907.7 94.7379 907.7C70.3379 907.7 47.2379 903.5 27.9379 895.6C11.9379 889.2 -3.26215 880.8 -17.2621 870.6C-37.5621 855.9 -53.8621 839.1 -65.8621 820.7C-78.7621 800.8 -86.6621 778.8 -89.2621 755.5C-91.6621 734.6 -90.4621 713.7 -85.4621 693.2C-80.7621 674.1 -73.0621 656.2 -62.2621 639.8C-52.1621 624.3 -39.5621 610.8 -24.6621 599.8C-3.66214 584 22.8379 574.6 46.1379 574.6C71.7379 574.6 90.5378 586.7 101.938 610.7C114.246 636.607 116.603 652.366 118.496 665.018L118.538 665.3L118.638 665.8ZM45.9379 580.7C39.1378 580.7 31.7379 581.7 23.9379 583.5C-47.3622 603.9 -92.4621 676 -83.4621 755C-82.1621 766.8 -79.3621 778.5 -75.2621 789.7C-53.9621 846.6 13.5379 896.6 75.2379 901.1C81.8379 901.6 88.4379 901.8 94.7379 901.8C140.138 901.8 176.638 889.7 203.338 865.7C225.638 845.3 248.138 812.9 248.038 786.4C248.038 771.3 238.638 756.3 223.038 746.2C212.649 739.507 200.863 736.207 188.378 732.711L188.338 732.7L186.888 732.283C175.533 729.017 163.759 725.63 152.538 719.3C132.638 708 116.238 686.4 112.738 666.8L112.538 665.5C110.738 653.4 108.438 638.3 96.5378 613.4C86.2379 591.7 69.2379 580.7 45.9379 580.7Z" fill="url(#paint4_linear_47_6)"/>
<path fill-rule="evenodd" clip-rule="evenodd" d="M227.877 717.36C242.502 721.041 257.61 724.844 270.938 732.9C291.838 745.2 304.838 765.6 305.038 786C305.138 805.2 296.938 826.3 280.038 850.3C251.738 890.4 220.238 912.2 174.638 923.2C155.238 927.8 135.238 930.1 115.238 930.1H113.538C87.938 930 66.238 927.7 37.238 916.2C-21.362 892.7 -92.662 834.8 -100.562 748.9C-105.062 701.9 -93.462 654.2 -68.062 614.5C-51.962 589.2 -30.662 568.3 -6.26202 554.1C15.338 541.5 38.638 534.5 59.438 534.5C68.938 534.5 77.638 535.9 85.238 538.8C101.838 545.1 114.638 557.9 123.338 576.9C137.149 606.792 139.379 625.394 141.165 640.292L141.238 640.9C142.238 649.5 143.938 656.9 148.938 665.6C170.338 703 199.438 710.3 227.638 717.3L227.877 717.36ZM299.038 786C298.938 767.6 287.238 749.7 267.838 738C255.138 730.3 241.038 726.8 226.138 723.2C211.638 719.6 196.738 715.9 182.638 708.1C158.038 694.6 138.738 668.4 135.638 644.5L135.438 642.7L135.402 642.397C133.511 626.669 131.352 608.712 117.938 579.5C114.038 570.7 108.638 562.9 101.738 556.3C90.838 546 75.838 540.6 58.438 540.6C24.638 540.6 -14.862 560.9 -44.562 593.6C-82.362 635.2 -100.162 690.2 -94.562 748.4C-85.662 844.5 11.338 917.8 92.838 923.4C99.738 923.9 106.638 924.1 113.438 924.1C151.638 924.1 205.638 916.6 245.338 881.1C267.038 861.7 299.338 820.3 299.038 786Z" fill="url(#paint5_linear_47_6)"/>
<path fill-rule="evenodd" clip-rule="evenodd" d="M172.438 647.7C167.938 639.6 165.238 630.8 164.338 621.6C164.288 620.9 164.213 620.2 164.138 619.5C164.063 618.8 163.988 618.1 163.938 617.4C162.338 599.8 160.238 577.8 144.638 543C134.738 520.9 120.038 506.1 100.838 498.9C92.2379 495.7 82.6379 494 72.4379 494C29.1379 494 -32.9621 523.4 -73.9621 589.1C-87.8621 611.2 -98.2621 635.2 -104.762 660.5C-126.962 746.3 -98.8621 809.3 -71.4621 847C-49.4621 877.1 -19.4621 903.1 15.5379 922.2C47.2379 939.5 81.0379 950 110.838 951.7L111.938 951.8C119.038 952.2 126.138 952.4 133.038 952.4C178.938 952.4 243.738 943.5 291.338 901C303.638 890 315.338 876.6 327.138 860.1C346.938 832.2 356.438 807.8 356.138 785.6C356.038 772.9 351.838 760.8 343.738 749.6C322.638 720.9 295.038 714.6 265.938 708L265.923 707.997C232.228 700.298 197.634 692.393 172.438 647.7ZM350.038 785.6C350.238 806.5 341.138 829.7 322.138 856.6C310.638 872.8 299.238 885.8 287.238 896.5C241.038 937.7 177.838 946.4 132.938 946.4C125.438 946.4 117.838 946.2 110.138 945.7C25.038 940.3 -67.2621 870.5 -95.7621 790.1C-114.862 735.6 -109.662 671.6 -81.3621 614.4C-55.2621 561.5 -12.162 522 36.7379 506C49.6379 501.9 61.7379 499.9 72.838 499.9H72.9379C91.7379 499.9 107.638 505.9 120.138 517.6C127.738 524.7 134.238 534.1 139.238 545.5C154.438 579.4 156.438 600.7 158.038 617.9C158.088 618.65 158.163 619.375 158.238 620.1C158.313 620.825 158.388 621.55 158.438 622.3C160.338 641.9 172.038 663.3 190.538 681.1C212.931 702.093 238.821 707.996 263.813 713.694L263.838 713.7L264.527 713.858C281.671 717.799 297.835 721.514 312.538 730C335.738 743.1 349.838 764 350.038 785.6Z" fill="url(#paint6_linear_47_6)"/>
<path fill-rule="evenodd" clip-rule="evenodd" d="M402.938 763.5C405.438 770.4 406.838 777.8 406.938 785.2C407.138 799.2 403.838 814.3 397.238 830.2C391.838 842.7 384.238 855.7 374.138 869.9C360.638 888.8 347.338 904 333.338 916.5C279.138 964.7 205.238 974.8 152.738 974.8C144.438 974.7 135.838 974.5 127.338 974C93.8379 972 55.8379 960.2 20.2379 940.6C-18.9621 919 -52.7621 889.6 -77.3621 855.6C-108.362 812.8 -139.862 741.4 -114.262 644.2C-106.862 615.7 -95.1621 588.7 -79.6621 563.7C-59.1621 530.4 -32.1621 502.4 -1.56213 482.7C25.8379 465 55.2379 454.7 81.2379 453.7C82.8376 453.6 84.3374 453.6 85.9371 453.6C96.3371 453.6 106.638 455.4 116.538 458.9C127.238 463 137.238 469.4 145.238 477.6C153.538 486.1 160.538 496.7 166.038 509.2C183.338 548.6 185.238 573.3 186.738 593.1C186.834 594.16 186.907 595.196 186.98 596.221C187.057 597.323 187.134 598.412 187.238 599.5C188.238 611.1 191.038 620.8 196.038 629.8C224.938 681.8 264.938 690.3 303.638 698.5L303.772 698.529C336.923 705.618 368.371 712.343 392.638 744.5C396.938 750.3 400.438 756.7 402.938 763.5ZM401.038 785.2C400.638 760.3 384.338 736.6 357.238 721.7C340.038 712.2 321.338 708.3 301.538 704.2C272.738 698.1 243.038 691.8 217.338 667.7C207.238 658.2 198.538 646.7 190.738 632.7C182.538 617.9 181.538 604.9 180.838 595.4L180.738 593.8L180.716 593.512C179.22 574.061 177.355 549.811 160.538 511.6C145.638 477.6 119.638 459.6 85.5379 459.6C72.2379 459.6 57.7379 462.3 42.3379 467.6C-74.7621 508.3 -148.262 668.1 -105.962 790.4C-70.1621 893.7 43.1379 963 127.538 968.1C135.838 968.6 144.238 968.8 152.338 968.8C203.838 968.8 276.338 959 329.138 912C342.838 899.8 355.838 884.9 369.038 866.4C390.938 835.6 401.338 809.1 401.038 785.2Z" fill="url(#paint7_linear_47_6)"/>
<path fill-rule="evenodd" clip-rule="evenodd" d="M209.538 569.3C209.638 572.1 209.838 574.7 210.038 577.3C211.038 591 213.938 601.6 219.638 611.9C252.338 671.2 297.538 680.3 341.338 689L341.701 689.073C378.967 696.546 414.227 703.616 441.738 739.4C446.638 745.9 450.538 753 453.438 760.6C456.338 768.4 457.938 776.6 458.038 784.9C458.338 800.6 454.538 817.6 446.838 835.3C440.838 849.3 432.338 863.8 420.938 879.8C405.738 901 390.838 918.1 375.138 932C314.438 985.9 231.238 997.2 172.138 997.2H171.838C162.938 997.2 153.838 996.9 144.638 996.4C93.6378 993.5 36.2379 971 -12.6622 934.7C-23.7622 926.5 -34.4622 917.6 -44.5622 908.2C-80.9622 874.2 -107.662 834.2 -121.962 792.5C-138.662 743.6 -139.462 685.2 -124.062 627.8C-115.662 596.3 -102.762 566.1 -85.6622 538.3C-69.5622 511.9 -49.6622 488.1 -26.4622 467.7C-3.66216 447.8 20.9378 432.8 46.4378 423.4C62.5378 417.4 77.9378 414 92.3378 413.3C94.4378 413.2 96.5378 413.1 98.6378 413.1C110.138 413.1 121.338 415.1 132.138 418.9C144.238 423.3 155.338 430.6 164.338 439.8C173.638 449.3 181.338 461.2 187.438 475.2C206.392 519.195 208.13 546.867 209.528 569.14L209.538 569.3ZM144.938 990.4C154.038 990.9 163.238 991.2 172.138 991.2C230.138 991.2 311.738 980.1 371.038 927.4C386.338 913.8 401.038 897.1 415.938 876.2C440.638 841.5 452.438 811.6 452.038 784.8C451.538 756.7 432.838 730 401.938 713.5C382.651 703.26 361.783 699.049 339.628 694.579L338.941 694.44C294.333 685.459 248.163 676.163 214.338 614.6C205.345 598.313 204.439 583.823 203.64 571.03L203.638 571L203.538 569.5L203.525 569.302C202.127 547.635 200.381 520.569 181.838 477.6C165.338 439.4 136.338 419.2 97.9378 419.2C82.6378 419.2 65.9378 422.5 48.4378 429C-58.3622 468.5 -136.062 600.1 -128.462 728.6C-124.762 792.9 -94.4622 853.4 -41.0622 903.5C12.3378 953.6 83.6378 986.9 144.938 990.4Z" fill="url(#paint8_linear_47_6)"/>
<path fill-rule="evenodd" clip-rule="evenodd" d="M232.838 555.1C233.538 566.3 235.338 579.7 243.038 593.8C279.538 660.5 330.538 670.2 380.038 679.5L380.337 679.557C421.727 687.436 460.91 694.895 490.738 734.1C496.238 741.2 500.638 749.1 503.838 757.5C507.138 766.2 508.838 775.2 509.038 784.4C509.338 801.8 505.238 820.6 496.638 840.2C489.938 855.7 480.438 871.8 467.838 889.5C450.938 913 434.338 931.9 417.038 947.3C385.038 975.7 344.238 996.1 295.938 1007.8C263.838 1015.6 228.738 1019.5 191.538 1019.5C150.838 1019.5 118.638 1016 74.238 998.5C43.638 986.4 14.838 970.3 -11.562 950.7C-23.662 941.8 -35.362 932.1 -46.362 921.8C-86.862 883.9 -116.562 839.3 -132.262 792.7C-150.462 739.3 -150.962 675 -133.762 611.6C-124.562 576.9 -110.362 543.7 -91.662 513C-74.062 483.8 -52.362 457.5 -27.062 434.7C-2.16202 412.4 24.638 395.6 52.438 384.8C70.338 377.9 87.438 373.9 103.538 372.9L103.827 372.889C106.324 372.793 108.731 372.7 111.138 372.7C124.138 372.7 136.438 374.8 147.738 378.9C161.138 383.8 173.438 391.9 183.338 402.1C193.538 412.6 202.138 425.8 208.738 441.3C229.408 489.894 231.018 520.515 232.314 545.135L232.338 545.6C232.438 548.5 232.638 551.9 232.838 555.1ZM446.638 705.3C425.038 694.1 401.638 689.6 376.938 684.9L376.927 684.898C327.03 675.399 275.535 665.595 237.938 596.5C228.038 578.6 227.238 562.3 226.538 547.9L226.438 546.1C225.238 521.8 223.638 491.5 203.238 443.5C196.238 427.1 187.038 413.5 175.938 403.1C158.438 386.8 136.738 378.5 111.138 378.5C93.538 378.5 74.538 382.5 54.438 390.3C-61.762 435.5 -147.062 581.2 -139.862 722C-136.262 792.7 -101.862 862 -42.962 917.2C15.938 972.4 94.638 1009 162.238 1012.7C171.938 1013.2 181.638 1013.5 191.138 1013.5C256.038 1013.5 347.038 1001.2 413.038 942.7C430.038 927.7 446.338 909.1 462.938 885.9C490.438 847.4 503.538 814.2 503.038 784.4C502.338 747.4 473.438 719.3 446.638 705.3Z" fill="url(#paint9_linear_47_6)"/>
<path fill-rule="evenodd" clip-rule="evenodd" d="M-27.7621 401.5C-55.1621 426.6 -78.7621 455.5 -97.7621 487.5C-118.062 521.1 -133.462 557.3 -143.662 595.2C-159.062 652.1 -162.062 706.2 -152.362 755.8C-143.162 803.1 -122.162 848.1 -90.0621 889.6C-77.3621 905.9 -63.2621 921.3 -48.2621 935.5C-23.0621 959.1 5.13788 979.6 35.2379 996.5C50.6379 1005.1 66.8379 1012.7 83.2379 1019.2C98.9379 1025.4 115.238 1030.5 131.738 1034.3C146.138 1037.6 160.838 1039.9 175.538 1040.9L179.238 1041.1C189.638 1041.6 200.038 1041.9 210.238 1041.9H210.538C224.738 1041.9 238.738 1041.4 252.238 1040.4C277.038 1038.6 301.838 1034.8 326.038 1029C379.038 1016.2 423.638 993.9 458.738 962.8C477.738 946 495.938 925.2 514.538 899.3C528.438 879.9 538.838 862.2 546.238 845.2C555.638 823.7 560.238 803.1 559.838 784C559.638 773.9 557.638 764 554.038 754.6C550.438 745.4 545.538 736.8 539.538 729C528.038 714.1 512.238 701.3 493.938 691.9C469.573 679.37 442.538 674.454 416.275 669.68L415.769 669.587C362.09 659.791 306.621 649.668 266.538 575.9C258.238 560.6 256.338 546.2 255.638 533C255.438 529.4 255.238 525.8 255.138 522C254.038 494.9 252.638 461.1 230.038 407.5C222.838 390.5 213.538 376 202.238 364.4C191.338 353.1 177.838 344.3 163.138 338.9C150.938 334.5 137.738 332.2 123.738 332.2C120.738 332.2 117.638 332.3 114.538 332.5C96.8379 333.7 77.9379 338.3 58.3379 346.3C28.1379 358.4 -0.762115 377 -27.7621 401.5ZM491.238 697.2C521.038 712.4 553.138 743.3 553.938 784.1C554.538 816.8 540.138 853.4 509.738 895.8C491.438 921.3 473.538 941.8 454.838 958.3C382.438 1022.4 282.238 1035.9 210.938 1035.9C200.638 1035.9 190.138 1035.6 179.638 1035.1C105.738 1031.3 19.8379 991.3 -44.6621 930.8C-109.762 869.7 -147.562 793.2 -151.162 715.4C-157.962 562.4 -64.9621 402.6 60.5379 351.7C82.5379 342.8 103.638 338.3 123.138 338.3C151.338 338.3 175.438 347.5 194.738 365.6C206.938 377 216.938 391.9 224.438 409.7C245.038 458.5 247.838 489.7 249.138 522.5L249.238 523.9C249.938 541.2 250.738 559.1 261.338 578.7C302.738 655 359.638 665.4 414.638 675.4C441.738 680.3 467.438 685 491.238 697.2Z" fill="url(#paint10_linear_47_6)"/>
<path fill-rule="evenodd" clip-rule="evenodd" d="M-28.4621 368.5C-57.1621 395 -82.5621 426.5 -103.962 462.1C-125.762 498.5 -142.462 537.8 -153.562 578.8C-165.062 621.2 -170.062 665.1 -168.362 709C-167.062 742.7 -159.962 776.3 -147.262 808.7C-135.062 839.9 -117.762 870.1 -95.7621 898.6C-81.8621 916.5 -66.4621 933.5 -49.8621 949C-22.5621 974.6 7.83789 996.7 40.5379 1015C57.2379 1024.3 74.8379 1032.6 92.6379 1039.7C109.738 1046.4 127.438 1051.9 145.238 1056.1C162.138 1060 179.438 1062.5 196.738 1063.4C207.838 1064 218.938 1064.2 229.838 1064.2H230.038C245.738 1064.2 261.238 1063.6 276.138 1062.5C303.138 1060.5 330.138 1056.4 356.438 1050.1C414.138 1036.1 462.638 1011.9 500.738 978.2C521.438 959.9 541.338 937.3 561.538 909.1C576.738 887.9 588.038 868.7 596.038 850.3C600.738 839.8 604.438 828.8 607.138 817.6C609.838 806.5 611.038 795.1 610.938 783.6C610.738 772.6 608.538 761.9 604.538 751.6C600.638 741.6 595.238 732.3 588.638 723.8C576.038 707.6 558.738 693.7 538.638 683.6C512.019 670.191 482.638 664.971 454.12 659.903L453.365 659.769C394.719 649.379 333.995 638.62 290.138 557.7C281.638 542 279.338 527.5 278.538 510.5C278.428 508.361 278.349 506.191 278.266 503.942C278.198 502.091 278.128 500.186 278.038 498.2V498.1C277.038 468.5 275.738 431.7 251.338 373.2C243.938 355.4 234.338 340.2 222.738 327.9C211.638 315.9 197.738 306.3 182.638 300C168.438 294.2 152.838 291.2 136.238 291.2C133.538 291.2 130.738 291.3 128.038 291.4C107.938 292.5 86.4379 297.9 64.2379 307.2C31.8379 321.2 0.637894 341.7 -28.4621 368.5ZM137.538 297.6C152.338 297.6 166.738 300.4 180.438 305.9C192.538 310.9 203.538 318 213.038 327C226.538 339.7 237.638 356.1 245.838 375.8C269.79 433.186 271.033 469.356 272.032 498.426L272.038 498.6V498.9L272.058 499.444C272.849 521.013 273.533 539.677 284.838 560.7C330.106 644.141 392.05 655.085 452.011 665.678L452.138 665.7C481.738 670.9 509.738 675.9 535.938 689C568.738 705.5 604.038 739 604.938 783.7C605.638 819.4 589.838 859.3 556.638 905.6C536.638 933.5 517.038 955.8 496.738 973.7C417.738 1043.5 308.338 1058.2 230.338 1058.2C219.438 1058.2 208.138 1057.9 197.038 1057.4C116.938 1053.4 23.6379 1010.1 -46.3621 944.4C-93.8621 899.9 -128.662 846.9 -147.262 791.2C-156.162 764.6 -161.262 736.8 -162.462 708.8C-169.262 540.8 -70.7621 370.7 66.5379 313.1C91.0379 302.8 114.538 297.6 136.338 297.6H137.538Z" fill="url(#paint11_linear_47_6)"/>
<path fill-rule="evenodd" clip-rule="evenodd" d="M654.838 748.7C650.538 737.9 644.738 727.8 637.538 718.7C623.838 701.2 605.038 686.3 583.238 675.5C570.138 669 555.338 663.8 537.938 659.5C522.654 655.704 506.672 653.006 491.287 650.408L491.238 650.4L491.099 650.376C427.242 639.484 361.303 628.236 313.738 539.9C302.194 518.405 301.643 499.187 300.948 474.954L300.938 474.6L300.936 474.524C300.036 442.537 298.917 402.75 272.738 339.5C264.738 320.3 254.338 303.7 241.938 290.4C229.938 277.4 214.838 267 198.438 260.2C183.238 254.1 166.638 251 149.038 251C145.838 251 142.538 251.1 139.238 251.3C117.438 252.7 94.2379 258.6 70.2379 269C52.3379 276.8 35.0379 286.3 18.8379 297.2C1.93793 308.6 -14.1621 321.5 -29.0621 335.4C-44.5621 349.9 -59.1621 365.7 -72.3621 382.3C-86.0621 399.5 -98.6621 417.8 -109.962 436.6C-133.262 476 -151.162 518.3 -163.162 562.4C-175.662 608 -181.262 655.1 -179.762 702.4C-177.162 776.3 -148.462 849.5 -96.5621 914C-82.7621 931.2 -67.5621 947.6 -51.4621 962.7L-43.6621 969.9C-24.7621 986.8 -4.46208 1002.4 16.8379 1016.3C37.5379 1029.8 59.4379 1041.8 81.9379 1051.9C103.438 1061.6 125.838 1069.6 148.738 1075.5C170.138 1081.1 192.138 1084.5 214.238 1085.7C226.038 1086.3 237.838 1086.6 249.438 1086.6C266.638 1086.6 283.638 1086 299.938 1084.7C329.038 1082.6 358.238 1078 386.738 1071.3C449.038 1056.2 501.538 1030.1 542.638 993.7C564.938 974 586.538 949.5 608.438 918.9C624.838 896 637.138 875.2 645.838 855.3C650.838 843.9 654.938 832.1 657.838 820C660.738 808 662.038 795.6 661.938 783.3C661.538 771.4 659.238 759.8 654.838 748.7ZM150.238 257C166.038 257 181.438 260 196.038 265.8C209.238 271.2 221.238 278.9 231.538 288.7C246.238 302.5 258.138 320.3 267.038 341.8C292.838 404 293.938 443.3 294.738 474.8C295.438 500 296.038 519.9 308.238 542.8C330.238 583.7 357.938 612.1 392.938 629.6C423.68 645.07 456.782 650.706 488.832 656.163L489.638 656.3L490.753 656.491C522.442 661.919 552.465 667.062 580.338 680.9C616.038 698.6 654.638 734.8 655.638 783.4C656.438 822.1 639.338 865.3 603.338 915.5C581.638 945.7 560.438 969.8 538.438 989.3C452.938 1064.9 334.138 1080.7 249.538 1080.7C237.938 1080.7 226.038 1080.4 214.138 1079.8C126.438 1075.5 28.8379 1030.6 -46.9621 959.5C-125.462 885.6 -170.562 794.2 -173.762 702.2C-179.962 521.6 -74.0621 337.7 72.6379 274.4C99.4379 262.9 125.138 257 149.038 257H150.238Z" fill="url(#paint12_linear_47_6)"/>
</mask>
<g mask="url(#mask0_47_6)">
<g filter="url(#filter0_f_47_6)">
<circle cx="293.743" cy="675.944" r="428.5" transform="rotate(-178.465 293.743 675.944)" fill="#0B5EFF"/>
<circle cx="-104.363" cy="637.265" r="104.5" transform="rotate(-178.465 -104.363 637.265)" fill="#FF20B9"/>
<circle cx="46.2762" cy="839.373" r="162.5" transform="rotate(-178.465 46.2762 839.373)" fill="#4200FF"/>
<circle cx="275.313" cy="654.442" r="104.5" transform="rotate(-178.465 275.313 654.442)" fill="#4200FF"/>
<circle cx="117.038" cy="737.232" r="104.5" transform="rotate(-178.465 117.038 737.232)" fill="#FF20B9"/>
<circle cx="35.8809" cy="630.019" r="104.5" transform="rotate(-178.465 35.8809 630.019)" fill="#FF20B9"/>
<circle cx="165.576" cy="568.472" r="104.5" transform="rotate(-178.465 165.576 568.472)" fill="black"/>
<circle cx="220.803" cy="822.042" r="104.5" transform="rotate(-178.465 220.803 822.042)" fill="black"/>
<circle cx="382.821" cy="804.876" r="111" transform="rotate(-178.465 382.821 804.876)" fill="black"/>
<circle cx="-18.4056" cy="472.008" r="111" transform="rotate(-178.465 -18.4056 472.008)" fill="black"/>
<circle cx="19.0564" cy="305.952" r="111" transform="rotate(-178.465 19.0564 305.952)" fill="#0B5EFF"/>
<circle cx="363.913" cy="465.248" r="149" transform="rotate(-178.465 363.913 465.248)" fill="black"/>
<circle cx="604.348" cy="862.831" r="149" transform="rotate(-178.465 604.348 862.831)" fill="black"/>
<circle cx="567.959" cy="876.862" r="156" transform="rotate(-178.465 567.959 876.862)" fill="black"/>
</g>
</g>
<mask id="mask1_47_6" style="mask-type:alpha" maskUnits="userSpaceOnUse" x="592" y="-387" width="1178" height="1081">
<path fill-rule="evenodd" clip-rule="evenodd" d="M1110.49 142.638L1109.98 142.065L1110.26 146.423C1110.27 147.129 1110.45 147.791 1110.67 148.618C1112.39 155.035 1119.06 157.671 1125.18 160.091L1125.28 160.132C1131.81 162.64 1137.75 164.95 1139.39 171.073C1139.52 171.569 1139.7 172.231 1139.67 172.772C1139.68 173.478 1139.9 174.305 1140.08 174.967C1141.28 179.435 1144.82 182.741 1149.16 183.707C1150.87 184.135 1152.87 184.309 1154.66 184.362C1167.86 184.016 1183.94 173.855 1185.09 160.954C1185.45 157.666 1185.06 154.223 1184.18 150.914C1182.67 145.288 1179.58 139.73 1175.14 135.068C1166.77 126.316 1154.97 121.321 1142.96 121.523C1134.49 121.665 1122.09 125.697 1115.4 133.164C1112.74 135.827 1111.14 139.095 1110.49 142.638ZM1170.19 139.764C1173.66 143.445 1176.27 147.889 1177.6 152.853C1178.27 155.335 1178.44 157.95 1178.23 160.488C1177.5 169.019 1164.35 177.509 1154.63 177.631C1150.22 177.747 1147.54 176.338 1146.7 173.194C1146.61 172.863 1146.52 172.532 1146.55 171.991C1146.45 170.954 1146.23 170.127 1145.96 169.134C1143.48 159.868 1134.74 156.358 1127.63 153.652L1127.57 153.629C1122.45 151.648 1118.13 149.976 1117.25 146.679L1117.02 145.852C1116.93 142.862 1118.04 139.727 1120.29 137.528C1125.76 131.452 1136.05 128.163 1142.95 128.088C1153.25 128.164 1163.09 132.445 1170.19 139.764Z" fill="url(#paint13_linear_47_6)"/>
<path fill-rule="evenodd" clip-rule="evenodd" d="M1086.86 175.572C1078.33 170.23 1072.09 162.149 1069.31 152.431C1067.76 146.639 1067.57 140.659 1068.68 134.864L1069.29 131.862C1072.59 117.679 1082.17 104.47 1096.34 94.4663C1109.77 85.0155 1126.5 79.2905 1141.33 79.041C1151.8 79.0726 1162.5 79.9316 1172.83 81.4199C1174.1 81.5232 1175.34 81.679 1176.57 81.8348C1177.81 81.9905 1179.05 82.1463 1180.32 82.2496C1194.23 83.8441 1206.65 91.1562 1216.16 103.504C1222.36 111.419 1227.23 121.643 1230.2 132.729C1233.53 145.139 1234.49 158.004 1232.74 170.001C1230.78 184.536 1222.01 198.77 1208.19 210.098C1196.14 220.065 1181.33 226.34 1169.94 226.199C1167.45 226.158 1165.03 225.741 1162.57 225.159C1155.31 223.204 1149.29 218.61 1145.28 212.236C1138.32 201.508 1126.72 195.927 1113.15 189.632C1104.11 185.67 1095.22 180.958 1086.86 175.572ZM1185.65 90.2213C1183.56 89.7162 1181.48 89.2112 1179.48 89.037C1178.59 88.9431 1177.67 88.8321 1176.74 88.7193C1175.18 88.5306 1173.57 88.3366 1171.99 88.2073C1161.87 86.8401 1151.55 86.058 1141.41 85.9377C1114.19 86.3123 1080.39 107.076 1075.39 136.081C1074.44 141.125 1074.68 146.024 1075.93 150.657C1078.01 158.434 1082.94 164.917 1090.5 169.984C1098.61 175.083 1107.12 179.719 1115.96 183.559C1130.53 190.295 1143.14 196.316 1151.08 208.731C1155.18 215.436 1162.1 219.433 1169.91 219.468C1189.24 219.434 1221.95 197.899 1225.95 169.16C1227.46 157.582 1226.69 146.085 1223.67 134.833L1223.36 133.675C1220.84 124.243 1216.53 115.465 1210.71 107.626C1204.54 99.1699 1195.63 93.0453 1185.65 90.2213Z" fill="url(#paint14_linear_47_6)"/>
<path fill-rule="evenodd" clip-rule="evenodd" d="M1201.93 40.4573C1194.2 40.0473 1186.04 39.395 1178.76 38.6864C1165.81 37.3667 1152.83 36.5877 1139.91 36.6804C1116.98 37.1493 1092.03 45.9628 1071.1 61.1495C1048.97 77.1874 1033.5 98.8892 1027.58 122.466L1027.15 124.177C1024.35 135.568 1024.39 147.618 1027.24 158.914C1030.83 172.317 1039.13 184.104 1050.53 192.222C1068.53 205.134 1086.33 213.311 1102.28 220.564L1102.73 220.766C1122.13 229.615 1138.72 237.18 1150.96 251.326C1157.45 258.987 1166.06 264.659 1175.83 267.362C1180.21 268.494 1184.63 269.084 1189.15 268.759C1205.76 267.856 1226.94 257.568 1244.43 242.066C1264.32 224.32 1277.33 202.037 1280.69 179.5C1283.56 159.755 1282.8 139.739 1278.28 120.202C1278.04 119.312 1277.84 118.411 1277.64 117.49C1277.42 116.529 1277.21 115.546 1276.94 114.532C1272.1 96.4958 1264.27 80.5049 1254.26 68.2904C1240.05 50.994 1222.06 41.4484 1201.93 40.4573ZM1139.82 43.6214C1152.58 43.573 1165.35 44.2309 1177.96 45.6392C1185.78 46.3802 1193.77 47.0769 1201.47 47.3215C1205.79 47.5811 1210.04 48.2161 1214.21 49.2263C1226.98 52.5435 1238.25 60.166 1247.83 71.432L1248.59 72.2918C1257.84 83.6465 1265.29 98.8545 1269.94 116.229C1275.39 136.581 1276.53 157.38 1273.56 178.041C1270.34 199.121 1258.3 219.726 1239.6 236.62C1223.3 251.272 1203.69 260.785 1188.49 261.664C1176.45 262.407 1164.89 256.992 1155.91 246.63C1142.64 231.321 1125.39 223.389 1105.31 214.159L1104.96 213.995C1089.42 206.984 1072 198.884 1054.46 186.38C1044.16 179.033 1036.96 168.724 1033.77 156.81C1031.15 147.047 1031.19 136.576 1033.7 125.438C1045.25 75.8788 1097.78 44.2455 1139.82 43.6214Z" fill="url(#paint15_linear_47_6)"/>
<path fill-rule="evenodd" clip-rule="evenodd" d="M984.753 165.156C980.662 149.227 980.861 131.438 985.584 113.325C994.13 80.3539 1015.43 49.994 1045.43 27.5907C1073.43 6.9664 1107.25 -5.11298 1137.95 -5.71249C1154.03 -5.94141 1170.3 -4.80221 1186.07 -3.53003C1197.84 -2.60617 1211.03 -1.70608 1223.33 -1.45599C1249.68 -1.06821 1273.45 10.8318 1291.93 32.835C1305.5 49.0619 1316.34 70.9859 1323.04 95.9715C1330.97 125.59 1332.81 158.262 1328.04 188.094C1323.27 218.633 1306.21 248.922 1280.1 273.296C1257.44 294.62 1229.67 308.8 1207.85 310.746C1201.25 311.272 1194.67 310.552 1188.21 308.915C1175.93 305.465 1164.89 298.67 1156.05 289.511C1138.66 272.082 1116.81 262.36 1091.55 251.12L1090.12 250.482C1067.04 240.2 1040.93 228.565 1014.11 208.542C999.976 198.142 989.541 183.026 984.974 165.983L984.753 165.156ZM1316.79 97.8218C1310.37 73.829 1299.96 52.8535 1286.94 37.3652L1285.88 36.0534C1273.71 21.7559 1259.14 12.3608 1242.9 8.02149C1236.6 6.34073 1230.14 5.41049 1223.57 5.39627C1211.1 5.19052 1198.25 4.20172 1185.93 3.24542C1170.16 1.97324 1154.23 0.745393 1138.36 1.09543C1082.07 2.16696 1010.09 45.9286 992.218 114.917C987.648 132.28 987.425 148.656 991.371 163.382C995.672 179.433 1005 193.072 1018.3 202.987C1044.83 222.77 1070.94 234.373 1094.05 244.644L1094.21 244.718L1095.45 245.272C1120.93 256.69 1143.03 266.593 1161 284.815C1174.61 298.548 1190.97 305.337 1207.28 303.982C1227.74 302.225 1253.85 288.489 1275.57 268.302C1300.69 244.901 1316.91 216.081 1321.54 186.999C1326.15 157.211 1324.64 127.11 1316.79 97.8218Z" fill="url(#paint16_linear_47_6)"/>
<path fill-rule="evenodd" clip-rule="evenodd" d="M1245.53 -43.0505C1228.87 -43.0195 1211.52 -44.2236 1194.67 -45.5607C1193.17 -45.6631 1191.68 -45.7668 1190.18 -45.8707C1172.62 -47.0867 1154.63 -48.3328 1136.91 -47.9964C1098.28 -47.2219 1055.94 -31.7999 1020.73 -5.69372C982.849 22.3688 955.739 60.8462 944.224 102.593C938.314 124.217 937.136 145.637 941.033 164.811L940.988 164.645L941.931 168.826L942.951 172.632C948.537 193.481 961.106 211.927 978.236 224.894C1014.21 252.312 1049.21 267.644 1080.13 281.191L1081.04 281.589C1112.35 295.191 1139.26 306.954 1161.56 327.938C1172.58 338.639 1186.27 346.678 1201.21 350.832C1209.64 353.183 1218.34 353.868 1226.97 352.975C1254.06 350.15 1288.32 331.748 1316.41 304.889C1348.76 274.052 1369.89 235.758 1376.23 197.173C1381.9 161.425 1380.71 125.211 1373.01 89.8535C1372.06 85.6725 1371.08 81.326 1369.97 77.1892C1361.5 45.5849 1347.95 18.1799 1330.66 -2.01498C1307.47 -28.9671 1278.15 -43.1006 1245.53 -43.0505ZM1245.6 -36.1539C1254.45 -36.2196 1263.28 -35.0385 1271.84 -32.8969C1291.87 -27.6243 1309.98 -15.6291 1325.29 2.43842C1342.07 22.0601 1355.28 48.8477 1363.53 79.6247C1373.6 117.892 1375.59 157.085 1369.39 196.166C1363.41 233.416 1342.8 270.329 1311.6 300.149C1284.48 326.036 1251.79 343.665 1226.23 346.255C1205.7 348.388 1184.49 340.06 1166.25 322.956C1143.4 301.624 1116.34 289.696 1085.13 275.936L1083.8 275.351C1053.07 261.948 1018.12 246.662 982.302 219.549C966.055 207.231 954.713 190.053 949.304 169.866C943.983 150.01 944.475 127.355 950.902 104.351C975.535 14.929 1064.95 -39.8881 1137.15 -41.1442C1156.22 -41.4649 1175.73 -40.131 1194.53 -38.7852C1211.22 -37.4038 1228.57 -36.1997 1245.6 -36.1539Z" fill="url(#paint17_linear_47_6)"/>
<path fill-rule="evenodd" clip-rule="evenodd" d="M898.303 171.471C893.154 146.959 894.688 119.591 902.578 92.1158C917.017 41.4271 949.933 -5.16778 995.532 -38.8452C1037.97 -70.4332 1089.01 -89.0767 1135.58 -90.0263C1157.26 -90.4306 1179.13 -88.9532 1200.35 -87.519C1201.41 -87.4474 1202.47 -87.3759 1203.52 -87.3048C1204.26 -87.2546 1205.01 -87.2042 1205.75 -87.1536C1206.59 -87.0966 1207.42 -87.0393 1208.26 -86.982L1208.28 -86.9805C1227.91 -85.6404 1247.96 -84.271 1267.56 -84.6007C1287.17 -84.889 1306.77 -80.5648 1324.33 -71.9677C1341.55 -63.2819 1356.46 -51.3161 1368.93 -36.5666C1389.82 -12.1938 1406.29 20.8134 1416.54 59.0364C1417.95 64.3314 1419.37 69.6263 1420.51 75.1754C1429.67 118.652 1430.87 162.845 1423.96 206.551C1416.27 253.303 1390.87 299.481 1352.31 336.945C1319 369.46 1278.19 391.921 1245.85 395.623C1235.19 396.883 1224.49 396.024 1213.97 393.167C1197.57 388.872 1181.29 379.755 1166.82 366.785C1139.82 342.55 1107.88 328.805 1070.94 312.912L1070.59 312.763C1031.71 296.048 987.59 277.011 941.997 241.876C921.707 226.385 906.961 204.444 900.399 179.955L900 178.465C899.756 177.555 899.565 176.676 899.373 175.796C899.182 174.916 898.99 174.036 898.747 173.126L898.303 171.471ZM1417.25 205.334C1424.87 157.004 1422.35 108.553 1409.84 61.1852C1399.69 23.293 1383.77 -8.97546 1363.77 -31.992C1345.29 -53.2889 1323.99 -67.2665 1300.28 -73.6824C1289.6 -76.4945 1278.6 -77.8055 1267.47 -77.6598C1247.83 -77.4438 1227.77 -78.7621 1208.13 -80.0528L1208.09 -80.0558C1206.35 -80.1699 1204.62 -80.2838 1202.89 -80.3963C1201.91 -80.4649 1200.93 -80.5338 1199.94 -80.6028C1178.81 -82.0833 1157.04 -83.6086 1135.65 -83.1297C1048.67 -81.4586 940.134 -14.6018 909.345 94.2043C901.026 123.39 900.133 151.828 906.828 176.813C913.302 200.971 926.987 221.601 946.228 236.486C991.313 271.048 1034.85 289.887 1073.31 306.36C1110.98 322.514 1143.46 336.511 1171.43 361.471C1194.3 381.946 1220.47 391.604 1245.06 388.738C1304.04 381.804 1400.51 307.006 1417.25 205.334Z" fill="url(#paint18_linear_47_6)"/>
<path fill-rule="evenodd" clip-rule="evenodd" d="M861.218 81.3847C870.372 50.0242 884.716 20.8202 903.929 -5.43234C940.934 -55.9605 991.526 -94.1681 1050.2 -116.098C1077.13 -126.15 1105.41 -131.778 1134.12 -132.552C1159.91 -132.903 1186.24 -131.268 1211.54 -129.533L1211.7 -129.577C1237.21 -127.721 1263.75 -125.965 1289.29 -126.602C1312.01 -127.192 1334.95 -122.342 1355.35 -112.38C1375.43 -102.33 1392.82 -88.3697 1407.32 -71.3274C1431.94 -42.9866 1451.16 -4.33288 1463.18 40.5089C1464.91 46.9621 1466.52 53.6251 1467.96 60.3325C1478.67 111.554 1480.09 163.846 1471.77 215.553C1462.52 270.352 1432.93 324.744 1388.29 368.627C1369.49 387.144 1348.4 403.081 1325.47 416.141C1304.15 427.885 1283.12 435.469 1264.75 437.731C1251.86 439.236 1239 438.248 1226.56 434.842C1207.65 429.799 1189.37 419.802 1172.08 404.926C1140.2 377.732 1103.27 361.953 1060.54 343.701L1058.83 342.967C1012.5 323.166 960.192 300.805 905.789 258.317C882.551 240.425 865.67 215.153 858.089 186.858L857.557 184.873C856.847 182.225 856.182 179.743 855.638 177.051L855.272 175.021C849.632 146.029 851.623 113.75 861.218 81.3847ZM1211.07 -122.669C1185.78 -124.404 1159.78 -126.127 1134.19 -125.655C1032.54 -123.779 905.051 -44.927 867.444 83.4408C857.025 118.687 855.82 153.238 863.845 183.188C871.426 211.483 887.29 235.608 909.645 252.85C963.756 294.977 1016.09 317.276 1062.26 336.952L1062.57 337.083C1104.38 354.788 1143.63 371.58 1176.35 399.701C1203.97 423.337 1234.99 434.534 1263.81 430.891C1299.84 426.379 1345.62 400.635 1383.39 363.557C1427.04 320.646 1455.95 267.678 1464.85 214.215C1474.11 156.758 1471.23 99.0052 1456.32 42.7019C1444.39 -1.80893 1425.72 -39.7239 1402.07 -67.0837L1401.06 -68.2301C1380.08 -92.2276 1355.63 -108.022 1328.5 -115.295C1315.73 -118.612 1302.53 -120.218 1289.32 -119.871C1263.61 -119.189 1236.91 -120.901 1211.24 -122.713L1211.07 -122.669Z" fill="url(#paint19_linear_47_6)"/>
<path fill-rule="evenodd" clip-rule="evenodd" d="M1311.23 -168.483C1337.11 -169.21 1363.05 -163.745 1386.42 -152.628C1408.16 -142.315 1428.12 -126.736 1446 -106.343C1474.18 -73.9895 1496.36 -29.5682 1510.15 21.8922C1512.19 29.5037 1514.16 37.4905 1515.74 45.4005C1528.03 103.826 1529.64 167.417 1519.96 224.632C1509.35 287.598 1475.53 350.04 1424.65 400.386C1403.4 421.686 1379.23 440.044 1353.1 455.027C1328.77 468.817 1304.81 477.364 1283.92 480.126C1268.99 481.997 1254.13 480.835 1239.61 476.924C1235.39 475.748 1231.13 474.407 1226.78 472.735C1208.75 465.683 1192.26 455.738 1177.54 443.188C1140.79 412.599 1096.76 393.893 1049.98 374.153L1048.9 373.696C994.756 350.79 933.584 324.91 869.792 274.879C843.604 254.585 824.336 225.697 815.779 193.761L815.203 191.61C814.272 188.136 813.462 184.451 812.696 180.932L812.519 180.27C805.968 146.556 808.45 108.825 819.737 70.8631C830.354 35.0317 847.075 1.46613 869.131 -28.7402C911.578 -86.7564 969.513 -130.656 1036.7 -155.928C1067.41 -167.706 1099.76 -174.068 1132.7 -174.913C1161.98 -175.488 1191.77 -173.538 1220.47 -171.652C1250.47 -169.58 1281.33 -167.565 1311.23 -168.483ZM1357.02 -156.455C1342.16 -160.277 1326.8 -162.014 1311.47 -161.631C1281.2 -160.789 1250 -162.716 1220.05 -164.622C1191.34 -166.508 1161.77 -168.338 1132.82 -167.85C1016.55 -165.604 870.057 -74.9216 826.294 72.8304C813.94 114.093 812.378 154.592 821.777 189.671C830.423 221.938 848.465 249.558 873.813 269.368C937.19 319.246 998.375 345.061 1052.36 367.838L1053.5 368.319C1100.29 388.122 1144.44 406.811 1181.65 438.007C1213.89 465.015 1249.88 477.54 1282.76 473.164C1324.1 467.94 1376.41 438.138 1419.58 395.36C1469.48 345.986 1502.57 284.803 1512.88 223.339C1523.77 156.753 1520.52 89.6992 1503.22 24.4606C1489.47 -26.8344 1467.84 -70.517 1440.63 -101.889L1439.61 -103.036C1415.64 -130.307 1387.78 -148.205 1357.02 -156.455Z" fill="url(#paint20_linear_47_6)"/>
<path fill-rule="evenodd" clip-rule="evenodd" d="M1229.45 -213.606L1229.28 -213.561C1197.17 -215.597 1163.97 -217.698 1131.32 -217.108C1096.06 -216.348 1059.65 -209.253 1023.18 -195.758C986.268 -181.965 951.642 -162.933 920.045 -139.214C887.257 -114.645 858.37 -85.4457 834.288 -52.2134C809.39 -18.0533 790.411 19.6641 778.211 60.1761C765.418 102.443 762.345 144.589 769.298 182.451L769.798 184.978C770.708 189.7 771.784 194.377 772.981 198.845C783.09 236.571 803.475 267.643 833.584 291.32C906.902 349.176 977.251 378.742 1039.35 404.665L1039.56 404.753C1091.84 426.694 1141.31 447.459 1182.67 481.538C1199.36 495.51 1218.13 506.622 1238.45 514.3C1242.97 515.927 1247.65 517.511 1252.19 518.598C1268.69 523.224 1285.82 524.306 1302.78 522.068C1326.25 518.972 1353.05 509.131 1380.3 493.671C1409.64 476.764 1436.67 455.865 1460.58 431.902C1517.67 374.928 1555.76 304.602 1567.57 233.513C1578.52 168.506 1576.94 96.3959 1562.94 30.2706C1561.04 21.2023 1558.77 12.0573 1556.42 3.28748C1540.82 -54.9571 1515.75 -104.815 1484.18 -141.225C1464.43 -163.955 1442.04 -181.363 1417.66 -192.92C1391.43 -205.402 1362.16 -211.392 1333.22 -210.199C1299.93 -209.033 1265.55 -211.263 1232.34 -213.418L1229.45 -213.606ZM1479.02 -136.65C1509.79 -101.266 1534.34 -51.9811 1549.9 6.09809C1569.48 80.4817 1573.21 156.628 1560.73 232.506C1549.07 302.138 1511.71 371.205 1455.6 427.207C1407.17 475.476 1348.15 509.379 1301.76 515.603C1254.21 522.137 1213.12 497.855 1186.99 476.479C1145.1 442.037 1095.72 421.254 1043.51 399.276L1041.99 398.637C980.267 372.79 910.504 343.422 837.694 286.14C809.187 263.807 788.967 232.691 779.213 196.288C768.439 156.079 770.403 109.797 784.647 62.3532C835.019 -105.082 1000.46 -207.759 1131.4 -210.211C1163.67 -210.879 1196.87 -208.778 1228.81 -206.697L1228.98 -206.742L1231.94 -206.554C1265.3 -204.443 1299.81 -202.259 1333.25 -203.468C1350.82 -204.096 1368.34 -202.23 1385.33 -197.737C1419.89 -188.553 1451.02 -168.342 1478.05 -137.631L1479.02 -136.65Z" fill="url(#paint21_linear_47_6)"/>
<path fill-rule="evenodd" clip-rule="evenodd" d="M1238.09 -255.471L1237.72 -255.548C1202.36 -257.779 1165.75 -260.03 1129.9 -259.468C1090.56 -258.682 1050.14 -250.689 1009.46 -235.71C968.379 -220.267 929.882 -199.134 894.967 -172.576C858.486 -145.243 826.458 -112.542 799.611 -75.7313C771.826 -37.7827 750.679 4.4173 736.852 49.4444C722.321 97.1429 718.758 144.74 726.622 187.324L726.855 188.858C727.943 194.242 729.076 199.791 730.494 205.086L730.672 205.748C735.15 222.46 741.779 238.596 750.426 253.659C762.622 274.687 778.512 292.953 797.587 307.882C880.071 373.106 959.236 406.137 1029.06 435.269L1029.31 435.376C1087.23 459.583 1141.97 482.513 1188.14 519.8C1206.81 535.193 1227.62 547.35 1250.33 555.985C1255.22 557.69 1260.11 559.394 1265.03 560.558C1283.61 565.689 1302.75 566.946 1321.94 564.463C1347.94 560.867 1377.63 549.896 1407.76 532.602C1440.26 513.605 1470.21 490.33 1496.72 463.539C1560.06 400.102 1602.17 321.606 1615.59 242.637C1627.87 170.003 1626.14 89.418 1610.56 15.3827C1608.31 4.99069 1605.94 -5.19147 1603.28 -15.1195C1585.9 -79.9829 1558.03 -135.653 1522.74 -176.031C1500.75 -201.174 1475.91 -220.411 1448.89 -233.212C1419.87 -246.894 1387.43 -253.454 1355.33 -252.124C1316.54 -250.599 1276.69 -253.045 1238.09 -255.471ZM1517.37 -171.577C1551.86 -132.225 1579.21 -77.1279 1596.59 -12.2646C1618.56 71.0543 1622.66 156.502 1608.71 241.464C1595.64 319.098 1554.06 396.214 1491.7 458.679C1437.88 512.648 1372.49 550.565 1320.83 557.667C1268.02 565.079 1221.82 538.265 1192.37 514.41C1145.32 476.474 1090.16 453.3 1031.66 428.895L1031.36 428.771C962.131 399.841 883.567 367.009 801.774 302.327C770.273 277.426 747.754 243.024 736.891 202.485C724.787 157.312 727.064 104.917 743.409 51.4118C799.981 -135.242 984.421 -249.749 1129.98 -252.572C1165.78 -253.299 1202.22 -251.003 1237.79 -248.651L1239.26 -248.559C1277.41 -246.161 1316.95 -243.676 1355.45 -245.062C1375.25 -245.936 1394.99 -243.774 1414.1 -238.611C1452.46 -228.494 1487.25 -205.892 1517.37 -171.577Z" fill="url(#paint22_linear_47_6)"/>
<path fill-rule="evenodd" clip-rule="evenodd" d="M995.955 -275.54C950.656 -258.614 908.333 -235.214 869.889 -205.937C829.759 -175.676 794.337 -139.759 764.768 -99.2046C734.142 -57.3022 710.782 -10.785 695.371 38.9228C679.103 92.0523 675.05 145.101 683.659 192.452L683.792 192.948C684.98 199.369 686.5 205.701 688.096 211.658L688.273 212.32C693.15 230.521 700.3 247.937 709.632 264.235C722.946 287.447 740.405 307.597 761.335 324.157C853.267 396.928 940.985 433.513 1018.57 465.872L1019.09 466.089C1082.5 492.5 1142.32 517.413 1193.39 557.94C1215.55 575.768 1238.58 588.927 1262.12 597.34C1267.22 599.166 1272.44 600.782 1277.62 602.232C1298.28 607.868 1319.58 609.255 1340.81 606.405C1369.33 602.31 1401.91 590.21 1435.08 571.036C1470.8 550.116 1503.65 524.465 1532.78 494.846C1565.23 462.387 1592.99 425.685 1615.25 385.669C1638.98 343.841 1655.05 298.568 1663.48 251.264C1676.85 171.422 1674.93 82.1981 1657.81 0.418215C1655.41 -11.1764 1652.68 -22.6823 1649.71 -33.7687C1630.56 -105.251 1599.77 -166.523 1560.92 -210.913C1536.69 -238.471 1509.41 -259.536 1479.8 -273.416C1447.76 -288.418 1412.19 -295.382 1376.98 -293.751C1334.17 -292.034 1289.79 -294.861 1247.02 -297.59L1245.12 -297.707C1206.94 -300.053 1167.39 -302.483 1128.48 -301.829C1085.12 -300.85 1040.64 -292.124 995.955 -275.54ZM1643.24 -30.7925C1667.64 61.6271 1672.06 156.211 1656.53 250.466C1641.93 336.312 1596.28 421.433 1527.67 490.361C1468.59 549.82 1396.49 591.839 1339.62 599.984C1319.26 602.778 1298.88 601.5 1279.13 595.974C1251.63 588.624 1224.17 574.169 1197.5 552.76C1145.74 511.696 1085.5 486.539 1021.65 459.88L1021.23 459.704C944.048 427.581 856.728 391.238 765.611 318.933C730.951 291.509 706.42 253.568 694.493 209.057C681.014 158.755 683.527 100.621 701.927 40.8901C767.35 -172.964 970.666 -291.819 1128.56 -294.932C1165.87 -295.639 1203.98 -293.344 1241.16 -291.105C1243.02 -290.993 1244.87 -290.881 1246.72 -290.77L1248.14 -290.682C1290.63 -288.024 1334.51 -285.278 1377.18 -287.064C1399.1 -287.973 1421 -285.682 1442.37 -280.058C1484.57 -268.842 1522.8 -243.972 1555.72 -206.504C1593.81 -162.973 1624.08 -102.275 1643.24 -30.7925Z" fill="url(#paint23_linear_47_6)"/>
<path fill-rule="evenodd" clip-rule="evenodd" d="M1711.05 260.686C1702.62 310.65 1684.84 360.107 1658.55 407.588C1634.1 451.38 1603.9 491.572 1568.51 526.948C1535.75 560.201 1498.91 588.869 1462.08 610.266C1426.04 631.275 1390.61 644.669 1359.52 649.098C1336.26 652.315 1312.97 650.754 1290.17 644.447C1284.83 643.041 1279.19 641.183 1273.71 639.281C1248.21 630.153 1222.87 615.661 1198.57 596.457C1142.88 552.567 1077.52 525.424 1008.56 496.786L1006.68 496.005C921.842 460.666 825.688 420.615 725.172 340.764C702.221 322.617 683.148 300.416 668.717 275.021C658.864 257.443 651.106 238.418 645.874 218.892L645.653 218.065C643.791 211.115 642.215 203.912 640.805 196.663L640.761 196.498C631.286 144.591 635.752 86.4658 653.801 28.0705C670.63 -26.2736 696.247 -76.9425 729.716 -122.799C762.126 -167.307 800.734 -206.56 844.558 -239.584C886.528 -271.58 932.888 -297.126 982.191 -315.657C1030.92 -333.68 1079.58 -343.349 1126.85 -344.31C1169.72 -345.156 1213.36 -342.483 1255.58 -339.786C1302.67 -336.797 1351.38 -333.71 1398.72 -335.753C1437.08 -337.52 1475.81 -329.986 1510.66 -313.784C1542.91 -298.661 1572.79 -275.811 1599.1 -245.795C1641.68 -197.437 1675.22 -130.518 1696.19 -52.252C1699.51 -39.8419 1702.55 -27.1778 1705.26 -14.4249C1724.09 75.0552 1725.99 172.798 1711.05 260.686ZM1255.53 -332.679L1255.42 -334.423L1255.37 -332.635L1251.47 -332.869C1210.52 -335.331 1168.41 -337.861 1127.18 -337.127C924.469 -333.177 723.804 -175.306 660.281 30.4131C639.78 96.2046 636.911 160.287 651.763 215.718C664.754 264.2 691.629 305.593 729.282 335.584C829.441 415.159 925.3 455.011 1009.92 490.191L1010.75 490.539L1011.34 490.783L1011.34 490.783L1011.35 490.784L1011.35 490.785C1080.76 519.565 1146.37 546.769 1202.68 591.276C1231.91 614.304 1261.84 630.048 1291.81 637.979C1313.64 644.011 1336.19 645.418 1358.57 642.258C1421.58 633.178 1498.24 588.341 1563.7 522.208C1638.51 446.652 1688.39 353.482 1704.38 259.634C1721.43 159.121 1716.35 49.4639 1689.97 -48.9893C1669 -127.256 1635.76 -193.722 1594.16 -241.099L1593.65 -241.673C1557.98 -282.127 1516.6 -308.815 1470.93 -321.053C1447.48 -327.182 1423.37 -329.769 1399.21 -328.614C1351.66 -326.692 1302.79 -329.735 1255.53 -332.679Z" fill="url(#paint24_linear_47_6)"/>
<path fill-rule="evenodd" clip-rule="evenodd" d="M1489.38 649.241C1529.25 625.965 1569.11 594.711 1604.54 558.794C1642.78 520.171 1675.46 476.656 1701.96 429.296C1730.56 377.829 1749.68 324.111 1758.91 269.853C1775.29 174.13 1773.09 67.9563 1752.88 -29.3126C1749.98 -43.4336 1746.63 -57.2561 1743.04 -70.659C1720.3 -155.544 1683.79 -228.23 1637.66 -280.601C1609.15 -312.865 1576.99 -337.589 1541.94 -353.911C1504.12 -371.268 1462.22 -379.372 1420.75 -377.303C1369.22 -375.023 1316.02 -378.325 1264.6 -381.574L1260.76 -381.805C1216.52 -384.463 1170.62 -387.221 1125.69 -386.385C1074.51 -385.441 1021.67 -374.828 968.769 -355.156C915.253 -335.141 865.067 -307.329 819.568 -272.614C772.096 -236.662 730.138 -194.028 694.962 -145.941C658.651 -96.1312 630.821 -41.145 612.364 17.7142C592.655 81.1653 587.61 144.411 597.786 200.919C599.252 209.039 601.049 217.07 603.133 224.847L603.355 225.674C608.986 246.689 617.264 266.994 627.891 286.137C643.483 313.882 664.081 337.802 689.054 357.536C799.484 445.35 904.807 488.955 997.953 527.487C1072.73 558.35 1143.36 587.662 1203.91 634.928C1230.56 655.63 1257.96 671.168 1285.59 680.966C1291.28 682.99 1297.25 684.76 1303.01 686.408C1327.73 693.264 1353.18 694.955 1378.64 691.327C1412.09 686.443 1450.41 671.919 1489.38 649.241ZM1377.53 684.531C1353.07 687.893 1328.57 686.477 1304.6 679.774C1272.13 671.096 1239.77 654.229 1207.93 629.417C1146.67 581.456 1075.66 552.068 1000.46 520.962L999.908 520.733C907.482 482.455 802.778 439.092 693.24 351.98L692.312 351.165C652.085 318.848 623.452 274.203 609.486 222.081C593.303 161.685 596.529 91.6547 618.921 19.6815C688.217 -203.545 906.146 -375.087 1125.76 -379.488C1169.95 -380.431 1215.12 -377.713 1258.85 -375.082L1264.3 -374.754C1315.88 -371.55 1369.08 -368.248 1420.99 -370.451C1502.87 -373.948 1574.17 -342.154 1632.5 -276.026C1677.83 -224.681 1713.82 -152.568 1736.66 -67.352C1765.39 39.8711 1770.92 159.161 1752.2 268.637C1734.8 370.486 1680.74 471.871 1599.67 553.89C1528.83 625.722 1445.8 674.573 1377.53 684.531Z" fill="url(#paint25_linear_47_6)"/>
</mask>
<g mask="url(#mask1_47_6)">
<g filter="url(#filter1_f_47_6)">
<circle cx="932.5" cy="237.5" r="428.5" fill="#0F003A"/>
<circle cx="1331.5" cy="265.5" r="104.5" fill="#FF20B9"/>
<circle cx="1175.5" cy="67.5" r="162.5" fill="#0F003A"/>
<circle cx="951.5" cy="258.5" r="104.5" fill="#0F003A"/>
<circle cx="1107.5" cy="171.5" r="104.5" fill="#FF20B9"/>
<circle cx="1191.5" cy="276.5" r="104.5" fill="#FF20B9"/>
<circle cx="1063.5" cy="341.5" r="104.5" fill="#792170"/>
<circle cx="1354.5" cy="104.5" r="104.5" fill="#792170"/>
<circle cx="1001.5" cy="89.5" r="104.5" fill="#F91616"/>
<circle cx="840" cy="111" r="111" fill="#0F003A"/>
<circle cx="1250" cy="433" r="111" fill="#0F003A"/>
<circle cx="1369" cy="600" r="111" fill="#3FDCFF"/>
<circle cx="1217" cy="600" r="111" fill="#0F003A"/>
<circle cx="1425" r="111" fill="#0F003A"/>
<circle cx="868" cy="450" r="149" fill="#00B2FF"/>
<circle cx="617" cy="59" r="149" fill="#00B2FF"/>
<circle cx="1479" cy="183" r="111" fill="#0F003A"/>
<circle cx="1425" cy="429" r="111" fill="#0F003A"/>
<circle cx="653" cy="44" r="156" fill="#0F003A"/>
</g>
</g>
<g filter="url(#filter2_f_47_6)">
<ellipse cx="1175.7" cy="187.22" rx="356.118" ry="138.754" transform="rotate(1.53122 1175.7 187.22)" fill="#FF2BA2" fill-opacity="0.6"/>
</g>
<g filter="url(#filter3_f_47_6)">
<ellipse cx="1174.75" cy="181.24" rx="115.346" ry="73.1837" transform="rotate(1.53122 1174.75 181.24)" fill="#FF2BA2" fill-opacity="0.6"/>
</g>
<g filter="url(#filter4_f_47_6)">
<ellipse cx="67.2599" cy="785.24" rx="115.346" ry="73.1837" transform="rotate(1.53122 67.2599 785.24)" fill="#FF2BA2" fill-opacity="0.6"/>
</g>
<g filter="url(#filter5_f_47_6)">
<ellipse cx="32.6084" cy="752.133" rx="248.053" ry="61.5263" transform="rotate(1.53122 32.6084 752.133)" fill="#FF2BA2" fill-opacity="0.6"/>
</g>
<g opacity="0.3" filter="url(#filter6_f_47_6)">
<path d="M395.438 714.586C292.954 878.017 124.481 729.113 6.49899 551.155L0 535.417C6.49899 523.715 28.2956 500.31 63.4901 500.31C107.483 500.31 141.478 500.31 185.471 535.417C229.464 570.524 240.962 551.155 288.955 578.999C336.947 606.843 355.445 597.158 385.44 594.737C409.436 592.8 470.427 484.169 497.922 410.726C555.08 378.04 687.293 280.949 758.882 309.035C848.368 344.143 1015.84 551.155 1181.82 500.31C1347.79 449.466 1297.3 440.99 1424.78 409.515C1504.34 389.871 1528.63 407.262 1532.06 425.822C1537.39 417.117 1534.45 429.033 1531.29 439.285C1531.13 439.863 1530.95 440.432 1530.76 440.99C1530.94 440.43 1531.12 439.86 1531.29 439.285C1532.48 435.089 1532.91 430.42 1532.06 425.822C1530.37 428.577 1527.86 433.398 1524.26 440.99C1504.77 482.15 1320.79 610.474 1167.82 689.164C1014.84 767.853 817.373 425.252 649.899 440.99C482.425 456.728 497.922 551.155 395.438 714.586Z" fill="#0587FF"/>
</g>
</g>
<defs>
<filter id="filter0_f_47_6" x="-565.021" y="-9.12033" width="1518.37" height="1313.57" filterUnits="userSpaceOnUse" color-interpolation-filters="sRGB">
<feFlood flood-opacity="0" result="BackgroundImageFix"/>
<feBlend mode="normal" in="SourceGraphic" in2="BackgroundImageFix" result="shape"/>
<feGaussianBlur stdDeviation="100" result="effect1_foregroundBlur_47_6"/>
</filter>
<filter id="filter1_f_47_6" x="268" y="-391" width="1522" height="1302" filterUnits="userSpaceOnUse" color-interpolation-filters="sRGB">
<feFlood flood-opacity="0" result="BackgroundImageFix"/>
<feBlend mode="normal" in="SourceGraphic" in2="BackgroundImageFix" result="shape"/>
<feGaussianBlur stdDeviation="100" result="effect1_foregroundBlur_47_6"/>
</filter>
<filter id="filter2_f_47_6" x="395.711" y="-375.792" width="1559.97" height="1126.02" filterUnits="userSpaceOnUse" color-interpolation-filters="sRGB">
<feFlood flood-opacity="0" result="BackgroundImageFix"/>
<feBlend mode="normal" in="SourceGraphic" in2="BackgroundImageFix" result="shape"/>
<feGaussianBlur stdDeviation="211.988" result="effect1_foregroundBlur_47_6"/>
</filter>
<filter id="filter3_f_47_6" x="899.449" y="-51.9639" width="550.602" height="466.407" filterUnits="userSpaceOnUse" color-interpolation-filters="sRGB">
<feFlood flood-opacity="0" result="BackgroundImageFix"/>
<feBlend mode="normal" in="SourceGraphic" in2="BackgroundImageFix" result="shape"/>
<feGaussianBlur stdDeviation="79.99" result="effect1_foregroundBlur_47_6"/>
</filter>
<filter id="filter4_f_47_6" x="-208.042" y="552.036" width="550.603" height="466.407" filterUnits="userSpaceOnUse" color-interpolation-filters="sRGB">
<feFlood flood-opacity="0" result="BackgroundImageFix"/>
<feBlend mode="normal" in="SourceGraphic" in2="BackgroundImageFix" result="shape"/>
<feGaussianBlur stdDeviation="79.99" result="effect1_foregroundBlur_47_6"/>
</filter>
<filter id="filter5_f_47_6" x="-403.361" y="502.267" width="871.939" height="499.731" filterUnits="userSpaceOnUse" color-interpolation-filters="sRGB">
<feFlood flood-opacity="0" result="BackgroundImageFix"/>
<feBlend mode="normal" in="SourceGraphic" in2="BackgroundImageFix" result="shape"/>
<feGaussianBlur stdDeviation="94" result="effect1_foregroundBlur_47_6"/>
</filter>
<filter id="filter6_f_47_6" x="-116" y="188" width="1767" height="713" filterUnits="userSpaceOnUse" color-interpolation-filters="sRGB">
<feFlood flood-opacity="0" result="BackgroundImageFix"/>
<feBlend mode="normal" in="SourceGraphic" in2="BackgroundImageFix" result="shape"/>
<feGaussianBlur stdDeviation="58" result="effect1_foregroundBlur_47_6"/>
</filter>
<linearGradient id="paint0_linear_47_6" x1="-220.736" y1="618.511" x2="458.568" y2="881.176" gradientUnits="userSpaceOnUse">
<stop stop-color="#FC5050"/>
<stop offset="0.56" stop-color="#7E4CA8"/>
<stop offset="1" stop-color="#0048FF"/>
</linearGradient>
<linearGradient id="paint1_linear_47_6" x1="-220.736" y1="618.511" x2="458.568" y2="881.176" gradientUnits="userSpaceOnUse">
<stop stop-color="#FC5050"/>
<stop offset="0.56" stop-color="#7E4CA8"/>
<stop offset="1" stop-color="#0048FF"/>
</linearGradient>
<linearGradient id="paint2_linear_47_6" x1="-220.736" y1="618.511" x2="458.568" y2="881.176" gradientUnits="userSpaceOnUse">
<stop stop-color="#FC5050"/>
<stop offset="0.56" stop-color="#7E4CA8"/>
<stop offset="1" stop-color="#0048FF"/>
</linearGradient>
<linearGradient id="paint3_linear_47_6" x1="-220.736" y1="618.511" x2="458.568" y2="881.176" gradientUnits="userSpaceOnUse">
<stop stop-color="#FC5050"/>
<stop offset="0.56" stop-color="#7E4CA8"/>
<stop offset="1" stop-color="#0048FF"/>
</linearGradient>
<linearGradient id="paint4_linear_47_6" x1="-220.736" y1="618.511" x2="458.568" y2="881.176" gradientUnits="userSpaceOnUse">
<stop stop-color="#FC5050"/>
<stop offset="0.56" stop-color="#7E4CA8"/>
<stop offset="1" stop-color="#0048FF"/>
</linearGradient>
<linearGradient id="paint5_linear_47_6" x1="-220.736" y1="618.511" x2="458.568" y2="881.176" gradientUnits="userSpaceOnUse">
<stop stop-color="#FC5050"/>
<stop offset="0.56" stop-color="#7E4CA8"/>
<stop offset="1" stop-color="#0048FF"/>
</linearGradient>
<linearGradient id="paint6_linear_47_6" x1="-220.736" y1="618.511" x2="458.568" y2="881.176" gradientUnits="userSpaceOnUse">
<stop stop-color="#FC5050"/>
<stop offset="0.56" stop-color="#7E4CA8"/>
<stop offset="1" stop-color="#0048FF"/>
</linearGradient>
<linearGradient id="paint7_linear_47_6" x1="-220.736" y1="618.511" x2="458.568" y2="881.176" gradientUnits="userSpaceOnUse">
<stop stop-color="#FC5050"/>
<stop offset="0.56" stop-color="#7E4CA8"/>
<stop offset="1" stop-color="#0048FF"/>
</linearGradient>
<linearGradient id="paint8_linear_47_6" x1="-220.736" y1="618.511" x2="458.568" y2="881.176" gradientUnits="userSpaceOnUse">
<stop stop-color="#FC5050"/>
<stop offset="0.56" stop-color="#7E4CA8"/>
<stop offset="1" stop-color="#0048FF"/>
</linearGradient>
<linearGradient id="paint9_linear_47_6" x1="-220.736" y1="618.511" x2="458.568" y2="881.176" gradientUnits="userSpaceOnUse">
<stop stop-color="#FC5050"/>
<stop offset="0.56" stop-color="#7E4CA8"/>
<stop offset="1" stop-color="#0048FF"/>
</linearGradient>
<linearGradient id="paint10_linear_47_6" x1="-220.736" y1="618.511" x2="458.568" y2="881.176" gradientUnits="userSpaceOnUse">
<stop stop-color="#FC5050"/>
<stop offset="0.56" stop-color="#7E4CA8"/>
<stop offset="1" stop-color="#0048FF"/>
</linearGradient>
<linearGradient id="paint11_linear_47_6" x1="-220.736" y1="618.511" x2="458.568" y2="881.176" gradientUnits="userSpaceOnUse">
<stop stop-color="#FC5050"/>
<stop offset="0.56" stop-color="#7E4CA8"/>
<stop offset="1" stop-color="#0048FF"/>
</linearGradient>
<linearGradient id="paint12_linear_47_6" x1="-220.736" y1="618.511" x2="458.568" y2="881.176" gradientUnits="userSpaceOnUse">
<stop stop-color="#FC5050"/>
<stop offset="0.56" stop-color="#7E4CA8"/>
<stop offset="1" stop-color="#0048FF"/>
</linearGradient>
<linearGradient id="paint13_linear_47_6" x1="1486.33" y1="228.767" x2="875.029" y2="62.3596" gradientUnits="userSpaceOnUse">
<stop stop-color="#E9B49F"/>
<stop offset="0.091" stop-color="#E9B49F"/>
<stop offset="0.435" stop-color="#BC457F"/>
<stop offset="1" stop-color="#6F3FBF"/>
</linearGradient>
<linearGradient id="paint14_linear_47_6" x1="1486.33" y1="228.767" x2="875.029" y2="62.3596" gradientUnits="userSpaceOnUse">
<stop stop-color="#E9B49F"/>
<stop offset="0.091" stop-color="#E9B49F"/>
<stop offset="0.435" stop-color="#BC457F"/>
<stop offset="1" stop-color="#6F3FBF"/>
</linearGradient>
<linearGradient id="paint15_linear_47_6" x1="1486.33" y1="228.767" x2="875.029" y2="62.3596" gradientUnits="userSpaceOnUse">
<stop stop-color="#E9B49F"/>
<stop offset="0.091" stop-color="#E9B49F"/>
<stop offset="0.435" stop-color="#BC457F"/>
<stop offset="1" stop-color="#6F3FBF"/>
</linearGradient>
<linearGradient id="paint16_linear_47_6" x1="1486.33" y1="228.767" x2="875.029" y2="62.3596" gradientUnits="userSpaceOnUse">
<stop stop-color="#E9B49F"/>
<stop offset="0.091" stop-color="#E9B49F"/>
<stop offset="0.435" stop-color="#BC457F"/>
<stop offset="1" stop-color="#6F3FBF"/>
</linearGradient>
<linearGradient id="paint17_linear_47_6" x1="1486.33" y1="228.767" x2="875.029" y2="62.3596" gradientUnits="userSpaceOnUse">
<stop stop-color="#E9B49F"/>
<stop offset="0.091" stop-color="#E9B49F"/>
<stop offset="0.435" stop-color="#BC457F"/>
<stop offset="1" stop-color="#6F3FBF"/>
</linearGradient>
<linearGradient id="paint18_linear_47_6" x1="1486.33" y1="228.767" x2="875.029" y2="62.3596" gradientUnits="userSpaceOnUse">
<stop stop-color="#E9B49F"/>
<stop offset="0.091" stop-color="#E9B49F"/>
<stop offset="0.435" stop-color="#BC457F"/>
<stop offset="1" stop-color="#6F3FBF"/>
</linearGradient>
<linearGradient id="paint19_linear_47_6" x1="1486.33" y1="228.767" x2="875.029" y2="62.3596" gradientUnits="userSpaceOnUse">
<stop stop-color="#E9B49F"/>
<stop offset="0.091" stop-color="#E9B49F"/>
<stop offset="0.435" stop-color="#BC457F"/>
<stop offset="1" stop-color="#6F3FBF"/>
</linearGradient>
<linearGradient id="paint20_linear_47_6" x1="1486.33" y1="228.767" x2="875.029" y2="62.3596" gradientUnits="userSpaceOnUse">
<stop stop-color="#E9B49F"/>
<stop offset="0.091" stop-color="#E9B49F"/>
<stop offset="0.435" stop-color="#BC457F"/>
<stop offset="1" stop-color="#6F3FBF"/>
</linearGradient>
<linearGradient id="paint21_linear_47_6" x1="1486.33" y1="228.767" x2="875.029" y2="62.3596" gradientUnits="userSpaceOnUse">
<stop stop-color="#E9B49F"/>
<stop offset="0.091" stop-color="#E9B49F"/>
<stop offset="0.435" stop-color="#BC457F"/>
<stop offset="1" stop-color="#6F3FBF"/>
</linearGradient>
<linearGradient id="paint22_linear_47_6" x1="1486.33" y1="228.767" x2="875.029" y2="62.3596" gradientUnits="userSpaceOnUse">
<stop stop-color="#E9B49F"/>
<stop offset="0.091" stop-color="#E9B49F"/>
<stop offset="0.435" stop-color="#BC457F"/>
<stop offset="1" stop-color="#6F3FBF"/>
</linearGradient>
<linearGradient id="paint23_linear_47_6" x1="1486.33" y1="228.767" x2="875.029" y2="62.3596" gradientUnits="userSpaceOnUse">
<stop stop-color="#E9B49F"/>
<stop offset="0.091" stop-color="#E9B49F"/>
<stop offset="0.435" stop-color="#BC457F"/>
<stop offset="1" stop-color="#6F3FBF"/>
</linearGradient>
<linearGradient id="paint24_linear_47_6" x1="1486.33" y1="228.767" x2="875.029" y2="62.3596" gradientUnits="userSpaceOnUse">
<stop stop-color="#E9B49F"/>
<stop offset="0.091" stop-color="#E9B49F"/>
<stop offset="0.435" stop-color="#BC457F"/>
<stop offset="1" stop-color="#6F3FBF"/>
</linearGradient>
<linearGradient id="paint25_linear_47_6" x1="1486.33" y1="228.767" x2="875.029" y2="62.3596" gradientUnits="userSpaceOnUse">
<stop stop-color="#E9B49F"/>
<stop offset="0.091" stop-color="#E9B49F"/>
<stop offset="0.435" stop-color="#BC457F"/>
<stop offset="1" stop-color="#6F3FBF"/>
</linearGradient>
<clipPath id="clip0_47_6">
<rect width="1440" height="900" fill="white"/>
</clipPath>
</defs>
</svg>
