<svg width="163" height="156" viewBox="0 0 163 156" fill="none" xmlns="http://www.w3.org/2000/svg">
<path d="M136.969 67.6713L109.234 94.7056L115.782 132.879L81.5 114.856L47.2184 132.879L53.7656 94.7056L26.0313 67.6713L64.3592 62.1019L81.5 27.3709L98.6408 62.1019L136.969 67.6713Z" fill="#7C45AD"/>
<path fill-rule="evenodd" clip-rule="evenodd" d="M106.685 51.0302L81.5 0L56.3151 51.0302L0 59.2132L40.75 98.9347L31.1302 155.022L81.5 128.541L131.87 155.022L122.25 98.9347L163 59.2132L106.685 51.0302ZM99.9689 60.2739L141.267 66.2748L111.383 95.4039L118.438 136.535L81.5 117.115L44.5622 136.535L51.6167 95.4039L21.7333 66.2748L63.0311 60.2739L81.5 22.8518L99.9689 60.2739Z" fill="#7C45AD"/>
<path d="M59.784 84.872V76.328H58.08C57.808 76.328 57.616 75.984 57.504 75.296C57.456 74.96 57.432 74.616 57.432 74.264C57.432 73.912 57.456 73.568 57.504 73.232C57.616 72.544 57.808 72.2 58.08 72.2H66.144C66.416 72.2 66.6 72.544 66.696 73.232C66.76 73.568 66.792 73.912 66.792 74.264C66.792 74.616 66.76 74.96 66.696 75.296C66.6 75.984 66.416 76.328 66.144 76.328H64.536V84.872H66.216C66.488 84.872 66.68 85.216 66.792 85.904C66.856 86.24 66.888 86.584 66.888 86.936C66.888 87.288 66.856 87.632 66.792 87.968C66.68 88.656 66.488 89 66.216 89H58.128C57.856 89 57.672 88.656 57.576 87.968C57.512 87.632 57.48 87.288 57.48 86.936C57.48 86.584 57.512 86.24 57.576 85.904C57.672 85.216 57.856 84.872 58.128 84.872H59.784ZM70.5771 89.048C69.1211 89.048 68.3931 88.888 68.3931 88.568V73.016C68.3931 72.472 68.6411 72.2 69.1371 72.2H73.3611C75.7291 72.2 77.4331 72.688 78.4731 73.664C79.5291 74.64 80.0571 76.056 80.0571 77.912C80.0571 79.448 79.5611 80.856 78.5691 82.136C78.0731 82.776 77.3451 83.288 76.3851 83.672C75.4251 84.056 74.3051 84.248 73.0251 84.248V88.544C73.0251 88.736 72.7211 88.872 72.1131 88.952C71.5211 89.016 71.0091 89.048 70.5771 89.048ZM73.0251 76.376V80.168H73.3371C73.8971 80.168 74.3691 79.992 74.7531 79.64C75.1371 79.288 75.3291 78.792 75.3291 78.152C75.3291 77.512 75.1931 77.056 74.9211 76.784C74.6651 76.512 74.2011 76.376 73.5291 76.376H73.0251ZM89.4006 88.616C89.4006 88.936 88.6086 89.096 87.0246 89.096C85.4406 89.096 84.6486 88.936 84.6486 88.616V76.568H81.7686C81.4966 76.568 81.3046 76.2 81.1926 75.464C81.1446 75.112 81.1206 74.752 81.1206 74.384C81.1206 74.016 81.1446 73.656 81.1926 73.304C81.3046 72.568 81.4966 72.2 81.7686 72.2H92.2086C92.4806 72.2 92.6726 72.568 92.7846 73.304C92.8326 73.656 92.8566 74.016 92.8566 74.384C92.8566 74.752 92.8326 75.112 92.7846 75.464C92.6726 76.2 92.4806 76.568 92.2086 76.568H89.4006V88.616ZM93.2874 72.512C93.2874 72.432 93.6314 72.36 94.3194 72.296C95.0234 72.216 95.5994 72.176 96.0474 72.176C97.8234 72.176 98.7514 72.408 98.8314 72.872L100.895 83.432L102.839 72.872C102.935 72.408 103.927 72.176 105.815 72.176C106.279 72.176 106.863 72.208 107.567 72.272C108.271 72.336 108.623 72.408 108.623 72.488L104.375 88.376C104.311 88.632 103.839 88.8 102.959 88.88C101.599 89.024 100.359 89.056 99.2394 88.976C98.1354 88.88 97.5514 88.72 97.4874 88.496L93.2874 72.512Z" fill="white"/>
</svg>
